<svg xmlns="http://www.w3.org/2000/svg" xmlns:xlink="http://www.w3.org/1999/xlink" width="400" zoomAndPan="magnify" viewBox="0 0 300 74.999997" height="100" preserveAspectRatio="xMidYMid meet" version="1.0"><defs><g/><clipPath id="93ccbb8be1"><path d="M 0.00390625 6.085938 L 299.996094 6.085938 L 299.996094 69.085938 L 0.00390625 69.085938 Z M 0.00390625 6.085938 " clip-rule="nonzero"/></clipPath><clipPath id="e123af0809"><path d="M 7.71875 12.09375 L 151.773438 12.09375 L 151.773438 63.113281 L 7.71875 63.113281 Z M 7.71875 12.09375 " clip-rule="nonzero"/></clipPath></defs><g clip-path="url(#93ccbb8be1)"><path fill="#473c33" d="M 0.00390625 5.335938 L 4.503906 5.335938 L 4.503906 6.839844 L 0.00390625 6.839844 Z M 5.253906 5.335938 L 9.753906 5.335938 L 9.753906 6.839844 L 5.253906 6.839844 Z M 10.503906 5.335938 L 15.003906 5.335938 L 15.003906 6.839844 L 10.503906 6.839844 Z M 15.753906 5.335938 L 20.253906 5.335938 L 20.253906 6.839844 L 15.753906 6.839844 Z M 21.003906 5.335938 L 25.503906 5.335938 L 25.503906 6.839844 L 21.003906 6.839844 Z M 26.253906 5.335938 L 30.753906 5.335938 L 30.753906 6.839844 L 26.253906 6.839844 Z M 31.503906 5.335938 L 36.003906 5.335938 L 36.003906 6.839844 L 31.503906 6.839844 Z M 36.753906 5.335938 L 41.253906 5.335938 L 41.253906 6.839844 L 36.753906 6.839844 Z M 42.003906 5.335938 L 46.503906 5.335938 L 46.503906 6.839844 L 42.003906 6.839844 Z M 47.253906 5.335938 L 51.753906 5.335938 L 51.753906 6.839844 L 47.253906 6.839844 Z M 52.503906 5.335938 L 57.003906 5.335938 L 57.003906 6.839844 L 52.503906 6.839844 Z M 57.753906 5.335938 L 62.253906 5.335938 L 62.253906 6.839844 L 57.753906 6.839844 Z M 63.003906 5.335938 L 67.503906 5.335938 L 67.503906 6.839844 L 63.003906 6.839844 Z M 68.253906 5.335938 L 72.753906 5.335938 L 72.753906 6.839844 L 68.253906 6.839844 Z M 73.503906 5.335938 L 78.003906 5.335938 L 78.003906 6.839844 L 73.503906 6.839844 Z M 78.753906 5.335938 L 83.253906 5.335938 L 83.253906 6.839844 L 78.753906 6.839844 Z M 84.003906 5.335938 L 88.503906 5.335938 L 88.503906 6.839844 L 84.003906 6.839844 Z M 89.253906 5.335938 L 93.753906 5.335938 L 93.753906 6.839844 L 89.253906 6.839844 Z M 94.503906 5.335938 L 99.003906 5.335938 L 99.003906 6.839844 L 94.503906 6.839844 Z M 99.753906 5.335938 L 104.253906 5.335938 L 104.253906 6.839844 L 99.753906 6.839844 Z M 105.003906 5.335938 L 109.503906 5.335938 L 109.503906 6.839844 L 105.003906 6.839844 Z M 110.253906 5.335938 L 114.753906 5.335938 L 114.753906 6.839844 L 110.253906 6.839844 Z M 115.503906 5.335938 L 120.003906 5.335938 L 120.003906 6.839844 L 115.503906 6.839844 Z M 120.753906 5.335938 L 125.253906 5.335938 L 125.253906 6.839844 L 120.753906 6.839844 Z M 126.003906 5.335938 L 130.503906 5.335938 L 130.503906 6.839844 L 126.003906 6.839844 Z M 131.253906 5.335938 L 135.753906 5.335938 L 135.753906 6.839844 L 131.253906 6.839844 Z M 136.503906 5.335938 L 141.003906 5.335938 L 141.003906 6.839844 L 136.503906 6.839844 Z M 141.753906 5.335938 L 146.253906 5.335938 L 146.253906 6.839844 L 141.753906 6.839844 Z M 147.003906 5.335938 L 151.503906 5.335938 L 151.503906 6.839844 L 147.003906 6.839844 Z M 152.253906 5.335938 L 156.753906 5.335938 L 156.753906 6.839844 L 152.253906 6.839844 Z M 157.503906 5.335938 L 162.003906 5.335938 L 162.003906 6.839844 L 157.503906 6.839844 Z M 162.753906 5.335938 L 167.253906 5.335938 L 167.253906 6.839844 L 162.753906 6.839844 Z M 168.003906 5.335938 L 172.503906 5.335938 L 172.503906 6.839844 L 168.003906 6.839844 Z M 173.253906 5.335938 L 177.753906 5.335938 L 177.753906 6.839844 L 173.253906 6.839844 Z M 178.503906 5.335938 L 183.003906 5.335938 L 183.003906 6.839844 L 178.503906 6.839844 Z M 183.753906 5.335938 L 188.253906 5.335938 L 188.253906 6.839844 L 183.753906 6.839844 Z M 189.003906 5.335938 L 193.503906 5.335938 L 193.503906 6.839844 L 189.003906 6.839844 Z M 194.253906 5.335938 L 198.753906 5.335938 L 198.753906 6.839844 L 194.253906 6.839844 Z M 199.503906 5.335938 L 204.003906 5.335938 L 204.003906 6.839844 L 199.503906 6.839844 Z M 204.753906 5.335938 L 209.253906 5.335938 L 209.253906 6.839844 L 204.753906 6.839844 Z M 210.003906 5.335938 L 214.503906 5.335938 L 214.503906 6.839844 L 210.003906 6.839844 Z M 215.253906 5.335938 L 219.753906 5.335938 L 219.753906 6.839844 L 215.253906 6.839844 Z M 220.503906 5.335938 L 225.003906 5.335938 L 225.003906 6.839844 L 220.503906 6.839844 Z M 225.753906 5.335938 L 230.253906 5.335938 L 230.253906 6.839844 L 225.753906 6.839844 Z M 231.003906 5.335938 L 235.503906 5.335938 L 235.503906 6.839844 L 231.003906 6.839844 Z M 236.253906 5.335938 L 240.753906 5.335938 L 240.753906 6.839844 L 236.253906 6.839844 Z M 241.503906 5.335938 L 246.003906 5.335938 L 246.003906 6.839844 L 241.503906 6.839844 Z M 246.753906 5.335938 L 251.253906 5.335938 L 251.253906 6.839844 L 246.753906 6.839844 Z M 252.003906 5.335938 L 256.503906 5.335938 L 256.503906 6.839844 L 252.003906 6.839844 Z M 257.253906 5.335938 L 261.753906 5.335938 L 261.753906 6.839844 L 257.253906 6.839844 Z M 262.503906 5.335938 L 267.003906 5.335938 L 267.003906 6.839844 L 262.503906 6.839844 Z M 267.753906 5.335938 L 272.253906 5.335938 L 272.253906 6.839844 L 267.753906 6.839844 Z M 273.003906 5.335938 L 277.503906 5.335938 L 277.503906 6.839844 L 273.003906 6.839844 Z M 278.253906 5.335938 L 282.753906 5.335938 L 282.753906 6.839844 L 278.253906 6.839844 Z M 283.503906 5.335938 L 288.003906 5.335938 L 288.003906 6.839844 L 283.503906 6.839844 Z M 288.753906 5.335938 L 293.253906 5.335938 L 293.253906 6.839844 L 288.753906 6.839844 Z M 294.003906 5.335938 L 298.503906 5.335938 L 298.503906 6.839844 L 294.003906 6.839844 Z M 299.253906 5.335938 L 300.746094 5.335938 L 300.746094 9.855469 L 299.246094 9.855469 L 299.246094 6.085938 L 299.996094 6.085938 L 299.996094 6.839844 L 299.253906 6.839844 Z M 300.746094 10.609375 L 300.746094 15.121094 L 299.246094 15.121094 L 299.246094 10.609375 Z M 300.746094 15.875 L 300.746094 20.386719 L 299.246094 20.386719 L 299.246094 15.875 Z M 300.746094 21.136719 L 300.746094 25.652344 L 299.246094 25.652344 L 299.246094 21.136719 Z M 300.746094 26.402344 L 300.746094 30.914062 L 299.246094 30.914062 L 299.246094 26.402344 Z M 300.746094 31.667969 L 300.746094 36.179688 L 299.246094 36.179688 L 299.246094 31.667969 Z M 300.746094 36.933594 L 300.746094 41.445312 L 299.246094 41.445312 L 299.246094 36.933594 Z M 300.746094 42.195312 L 300.746094 46.710938 L 299.246094 46.710938 L 299.246094 42.195312 Z M 300.746094 47.460938 L 300.746094 51.972656 L 299.246094 51.972656 L 299.246094 47.460938 Z M 300.746094 52.726562 L 300.746094 57.238281 L 299.246094 57.238281 L 299.246094 52.726562 Z M 300.746094 57.992188 L 300.746094 62.503906 L 299.246094 62.503906 L 299.246094 57.992188 Z M 300.746094 63.253906 L 300.746094 67.769531 L 299.246094 67.769531 L 299.246094 63.253906 Z M 300.746094 68.519531 L 300.746094 69.839844 L 296.058594 69.839844 L 296.058594 68.335938 L 299.996094 68.335938 L 299.996094 69.085938 L 299.246094 69.085938 L 299.246094 68.519531 Z M 295.308594 69.839844 L 290.808594 69.839844 L 290.808594 68.335938 L 295.308594 68.335938 Z M 290.058594 69.839844 L 285.558594 69.839844 L 285.558594 68.335938 L 290.058594 68.335938 Z M 284.808594 69.839844 L 280.308594 69.839844 L 280.308594 68.335938 L 284.808594 68.335938 Z M 279.558594 69.839844 L 275.058594 69.839844 L 275.058594 68.335938 L 279.558594 68.335938 Z M 274.308594 69.839844 L 269.808594 69.839844 L 269.808594 68.335938 L 274.308594 68.335938 Z M 269.058594 69.839844 L 264.558594 69.839844 L 264.558594 68.335938 L 269.058594 68.335938 Z M 263.808594 69.839844 L 259.308594 69.839844 L 259.308594 68.335938 L 263.808594 68.335938 Z M 258.558594 69.839844 L 254.058594 69.839844 L 254.058594 68.335938 L 258.558594 68.335938 Z M 253.308594 69.839844 L 248.808594 69.839844 L 248.808594 68.335938 L 253.308594 68.335938 Z M 248.058594 69.839844 L 243.558594 69.839844 L 243.558594 68.335938 L 248.058594 68.335938 Z M 242.808594 69.839844 L 238.308594 69.839844 L 238.308594 68.335938 L 242.808594 68.335938 Z M 237.558594 69.839844 L 233.058594 69.839844 L 233.058594 68.335938 L 237.558594 68.335938 Z M 232.308594 69.839844 L 227.808594 69.839844 L 227.808594 68.335938 L 232.308594 68.335938 Z M 227.058594 69.839844 L 222.558594 69.839844 L 222.558594 68.335938 L 227.058594 68.335938 Z M 221.808594 69.839844 L 217.308594 69.839844 L 217.308594 68.335938 L 221.808594 68.335938 Z M 216.558594 69.839844 L 212.058594 69.839844 L 212.058594 68.335938 L 216.558594 68.335938 Z M 211.308594 69.839844 L 206.808594 69.839844 L 206.808594 68.335938 L 211.308594 68.335938 Z M 206.058594 69.839844 L 201.558594 69.839844 L 201.558594 68.335938 L 206.058594 68.335938 Z M 200.808594 69.839844 L 196.308594 69.839844 L 196.308594 68.335938 L 200.808594 68.335938 Z M 195.558594 69.839844 L 191.058594 69.839844 L 191.058594 68.335938 L 195.558594 68.335938 Z M 190.308594 69.839844 L 185.808594 69.839844 L 185.808594 68.335938 L 190.308594 68.335938 Z M 185.058594 69.839844 L 180.558594 69.839844 L 180.558594 68.335938 L 185.058594 68.335938 Z M 179.808594 69.839844 L 175.308594 69.839844 L 175.308594 68.335938 L 179.808594 68.335938 Z M 174.558594 69.839844 L 170.058594 69.839844 L 170.058594 68.335938 L 174.558594 68.335938 Z M 169.308594 69.839844 L 164.808594 69.839844 L 164.808594 68.335938 L 169.308594 68.335938 Z M 164.058594 69.839844 L 159.558594 69.839844 L 159.558594 68.335938 L 164.058594 68.335938 Z M 158.808594 69.839844 L 154.308594 69.839844 L 154.308594 68.335938 L 158.808594 68.335938 Z M 153.558594 69.839844 L 149.058594 69.839844 L 149.058594 68.335938 L 153.558594 68.335938 Z M 148.308594 69.839844 L 143.808594 69.839844 L 143.808594 68.335938 L 148.308594 68.335938 Z M 143.058594 69.839844 L 138.558594 69.839844 L 138.558594 68.335938 L 143.058594 68.335938 Z M 137.808594 69.839844 L 133.308594 69.839844 L 133.308594 68.335938 L 137.808594 68.335938 Z M 132.558594 69.839844 L 128.058594 69.839844 L 128.058594 68.335938 L 132.558594 68.335938 Z M 127.308594 69.839844 L 122.808594 69.839844 L 122.808594 68.335938 L 127.308594 68.335938 Z M 122.058594 69.839844 L 117.558594 69.839844 L 117.558594 68.335938 L 122.058594 68.335938 Z M 116.808594 69.839844 L 112.308594 69.839844 L 112.308594 68.335938 L 116.808594 68.335938 Z M 111.558594 69.839844 L 107.058594 69.839844 L 107.058594 68.335938 L 111.558594 68.335938 Z M 106.308594 69.839844 L 101.808594 69.839844 L 101.808594 68.335938 L 106.308594 68.335938 Z M 101.058594 69.839844 L 96.558594 69.839844 L 96.558594 68.335938 L 101.058594 68.335938 Z M 95.808594 69.839844 L 91.308594 69.839844 L 91.308594 68.335938 L 95.808594 68.335938 Z M 90.558594 69.839844 L 86.058594 69.839844 L 86.058594 68.335938 L 90.558594 68.335938 Z M 85.308594 69.839844 L 80.808594 69.839844 L 80.808594 68.335938 L 85.308594 68.335938 Z M 80.058594 69.839844 L 75.558594 69.839844 L 75.558594 68.335938 L 80.058594 68.335938 Z M 74.808594 69.839844 L 70.308594 69.839844 L 70.308594 68.335938 L 74.808594 68.335938 Z M 69.558594 69.839844 L 65.058594 69.839844 L 65.058594 68.335938 L 69.558594 68.335938 Z M 64.308594 69.839844 L 59.808594 69.839844 L 59.808594 68.335938 L 64.308594 68.335938 Z M 59.058594 69.839844 L 54.558594 69.839844 L 54.558594 68.335938 L 59.058594 68.335938 Z M 53.808594 69.839844 L 49.308594 69.839844 L 49.308594 68.335938 L 53.808594 68.335938 Z M 48.558594 69.839844 L 44.058594 69.839844 L 44.058594 68.335938 L 48.558594 68.335938 Z M 43.308594 69.839844 L 38.808594 69.839844 L 38.808594 68.335938 L 43.308594 68.335938 Z M 38.058594 69.839844 L 33.558594 69.839844 L 33.558594 68.335938 L 38.058594 68.335938 Z M 32.808594 69.839844 L 28.308594 69.839844 L 28.308594 68.335938 L 32.808594 68.335938 Z M 27.558594 69.839844 L 23.058594 69.839844 L 23.058594 68.335938 L 27.558594 68.335938 Z M 22.308594 69.839844 L 17.808594 69.839844 L 17.808594 68.335938 L 22.308594 68.335938 Z M 17.058594 69.839844 L 12.558594 69.839844 L 12.558594 68.335938 L 17.058594 68.335938 Z M 11.808594 69.839844 L 7.308594 69.839844 L 7.308594 68.335938 L 11.808594 68.335938 Z M 6.558594 69.839844 L 2.058594 69.839844 L 2.058594 68.335938 L 6.558594 68.335938 Z M 1.308594 69.839844 L -0.746094 69.839844 L -0.746094 65.882812 L 0.753906 65.882812 L 0.753906 69.085938 L 0.00390625 69.085938 L 0.00390625 68.335938 L 1.308594 68.335938 Z M -0.746094 65.132812 L -0.746094 60.617188 L 0.753906 60.617188 L 0.753906 65.132812 Z M -0.746094 59.867188 L -0.746094 55.355469 L 0.753906 55.355469 L 0.753906 59.867188 Z M -0.746094 54.601562 L -0.746094 50.089844 L 0.753906 50.089844 L 0.753906 54.601562 Z M -0.746094 49.335938 L -0.746094 44.824219 L 0.753906 44.824219 L 0.753906 49.335938 Z M -0.746094 44.074219 L -0.746094 39.558594 L 0.753906 39.558594 L 0.753906 44.074219 Z M -0.746094 38.808594 L -0.746094 34.296875 L 0.753906 34.296875 L 0.753906 38.808594 Z M -0.746094 33.542969 L -0.746094 29.03125 L 0.753906 29.03125 L 0.753906 33.542969 Z M -0.746094 28.277344 L -0.746094 23.765625 L 0.753906 23.765625 L 0.753906 28.277344 Z M -0.746094 23.015625 L -0.746094 18.5 L 0.753906 18.5 L 0.753906 23.015625 Z M -0.746094 17.75 L -0.746094 13.238281 L 0.753906 13.238281 L 0.753906 17.75 Z M -0.746094 12.484375 L -0.746094 7.972656 L 0.753906 7.972656 L 0.753906 12.484375 Z M -0.746094 7.21875 L -0.746094 6.085938 L 0.753906 6.085938 L 0.753906 7.21875 Z M -0.746094 7.21875 " fill-opacity="1" fill-rule="nonzero"/></g><g clip-path="url(#e123af0809)"><path fill="#473c33" d="M 7.71875 12.09375 L 151.496094 12.09375 L 151.496094 63.636719 L 7.71875 63.636719 Z M 7.71875 12.09375 " fill-opacity="1" fill-rule="nonzero"/></g><g fill="#fec868" fill-opacity="1"><g transform="translate(14.874662, 45.448654)"><g><path d="M 2.496094 0 L 12.976562 0 L 12.976562 -2.058594 L 4.652344 -2.058594 L 4.652344 -17.140625 L 2.496094 -17.140625 Z M 2.496094 0 "/></g></g></g><g fill="#fec868" fill-opacity="1"><g transform="translate(30.466936, 45.448654)"><g><path d="M 8.914062 0.292969 C 13.050781 0.292969 15.546875 -2.425781 15.546875 -6.976562 L 15.546875 -17.140625 L 13.394531 -17.140625 L 13.394531 -7.125 C 13.394531 -3.625 11.851562 -1.8125 8.914062 -1.8125 C 6 -1.8125 4.433594 -3.625 4.433594 -7.125 L 4.433594 -17.140625 L 2.300781 -17.140625 L 2.300781 -6.976562 C 2.300781 -2.425781 4.773438 0.292969 8.914062 0.292969 Z M 8.914062 0.292969 "/></g></g></g><g fill="#fec868" fill-opacity="1"><g transform="translate(50.171258, 45.448654)"><g><path d="M 0.929688 0 L 3.5 0 L 8.421875 -7.125 L 9.84375 -5.066406 L 13.34375 0 L 15.890625 0 L 9.746094 -8.789062 L 15.597656 -17.140625 L 13.074219 -17.140625 L 9.867188 -12.535156 L 8.421875 -10.382812 L 3.746094 -17.140625 L 1.175781 -17.140625 L 7.050781 -8.765625 Z M 0.929688 0 "/></g></g></g><g fill="#fec868" fill-opacity="1"><g transform="translate(68.847569, 45.448654)"><g><path d="M 8.914062 0.292969 C 13.050781 0.292969 15.546875 -2.425781 15.546875 -6.976562 L 15.546875 -17.140625 L 13.394531 -17.140625 L 13.394531 -7.125 C 13.394531 -3.625 11.851562 -1.8125 8.914062 -1.8125 C 6 -1.8125 4.433594 -3.625 4.433594 -7.125 L 4.433594 -17.140625 L 2.300781 -17.140625 L 2.300781 -6.976562 C 2.300781 -2.425781 4.773438 0.292969 8.914062 0.292969 Z M 8.914062 0.292969 "/></g></g></g><g fill="#fec868" fill-opacity="1"><g transform="translate(88.551891, 45.448654)"><g><path d="M 2.496094 0 L 4.652344 0 L 4.652344 -13.125 L 10.332031 -4.554688 L 12.09375 -4.554688 L 17.777344 -13.097656 L 17.777344 0 L 19.929688 0 L 19.929688 -17.140625 L 17.921875 -17.140625 L 11.238281 -6.976562 L 4.503906 -17.140625 L 2.496094 -17.140625 Z M 2.496094 0 "/></g></g></g><g fill="#fec868" fill-opacity="1"><g transform="translate(112.833305, 45.448654)"><g><path d="M 8.914062 0.292969 C 13.050781 0.292969 15.546875 -2.425781 15.546875 -6.976562 L 15.546875 -17.140625 L 13.394531 -17.140625 L 13.394531 -7.125 C 13.394531 -3.625 11.851562 -1.8125 8.914062 -1.8125 C 6 -1.8125 4.433594 -3.625 4.433594 -7.125 L 4.433594 -17.140625 L 2.300781 -17.140625 L 2.300781 -6.976562 C 2.300781 -2.425781 4.773438 0.292969 8.914062 0.292969 Z M 8.914062 0.292969 "/></g></g></g><g fill="#fec868" fill-opacity="1"><g transform="translate(132.537633, 45.448654)"><g><path d="M 8.203125 0.316406 C 11.949219 0.316406 14.371094 -1.519531 14.371094 -4.503906 C 14.371094 -7.027344 12.683594 -8.546875 8.300781 -9.621094 C 4.96875 -10.429688 3.867188 -11.3125 3.867188 -12.730469 C 3.867188 -14.371094 5.335938 -15.402344 7.785156 -15.402344 C 10.308594 -15.402344 11.875 -14.128906 11.925781 -12.070312 L 14.054688 -12.070312 C 14.03125 -15.402344 11.628906 -17.457031 7.785156 -17.457031 C 4.039062 -17.457031 1.664062 -15.621094 1.664062 -12.730469 C 1.664062 -10.085938 3.550781 -8.617188 7.761719 -7.613281 C 10.847656 -6.878906 12.144531 -6.023438 12.144531 -4.433594 C 12.144531 -2.742188 10.625 -1.738281 8.203125 -1.738281 C 5.535156 -1.738281 3.671875 -3.0625 3.625 -5.265625 L 1.46875 -5.265625 C 1.492188 -1.910156 4.113281 0.316406 8.203125 0.316406 Z M 8.203125 0.316406 "/></g></g></g><g fill="#473c33" fill-opacity="1"><g transform="translate(152.660433, 45.448654)"><g><path d="M 9.820312 0.367188 C 14.542969 0.367188 18.117188 -2.496094 18.851562 -6.855469 L 13.832031 -6.855469 C 13.222656 -5.238281 11.777344 -4.210938 9.917969 -4.210938 C 7.515625 -4.210938 5.851562 -6 5.851562 -8.570312 C 5.851562 -11.164062 7.542969 -12.929688 9.964844 -12.929688 C 11.753906 -12.929688 13.246094 -11.925781 13.761719 -10.382812 L 18.753906 -10.382812 C 17.875 -14.714844 14.347656 -17.507812 9.769531 -17.507812 C 4.480469 -17.507812 0.832031 -13.859375 0.832031 -8.570312 C 0.832031 -3.28125 4.480469 0.367188 9.820312 0.367188 Z M 9.820312 0.367188 "/></g></g></g><g fill="#473c33" fill-opacity="1"><g transform="translate(172.290568, 45.448654)"><g><path d="M 1.8125 0 L 13.761719 0 L 13.761719 -4.578125 L 6.757812 -4.578125 L 6.757812 -17.140625 L 1.8125 -17.140625 Z M 1.8125 0 "/></g></g></g><g fill="#473c33" fill-opacity="1"><g transform="translate(186.658265, 45.448654)"><g><path d="M 10.160156 0.367188 C 15.621094 0.367188 19.488281 -3.328125 19.488281 -8.570312 C 19.488281 -13.808594 15.621094 -17.507812 10.160156 -17.507812 C 4.699219 -17.507812 0.832031 -13.808594 0.832031 -8.570312 C 0.832031 -3.328125 4.699219 0.367188 10.160156 0.367188 Z M 5.851562 -8.570312 C 5.851562 -11.140625 7.640625 -12.929688 10.160156 -12.929688 C 12.707031 -12.929688 14.46875 -11.140625 14.46875 -8.570312 C 14.46875 -6 12.707031 -4.210938 10.160156 -4.210938 C 7.640625 -4.210938 5.851562 -6 5.851562 -8.570312 Z M 5.851562 -8.570312 "/></g></g></g><g fill="#473c33" fill-opacity="1"><g transform="translate(206.998222, 45.448654)"><g><path d="M 5.902344 0 L 10.820312 0 L 10.820312 -12.5625 L 16.039062 -12.5625 L 16.039062 -17.140625 L 0.6875 -17.140625 L 0.6875 -12.5625 L 5.902344 -12.5625 Z M 5.902344 0 "/></g></g></g><g fill="#473c33" fill-opacity="1"><g transform="translate(223.715661, 45.448654)"><g><path d="M 12.046875 0 L 16.992188 0 L 16.992188 -17.140625 L 12.046875 -17.140625 L 12.046875 -10.992188 L 6.757812 -10.992188 L 6.757812 -17.140625 L 1.8125 -17.140625 L 1.8125 0 L 6.757812 0 L 6.757812 -6.441406 L 12.046875 -6.441406 Z M 12.046875 0 "/></g></g></g><g fill="#473c33" fill-opacity="1"><g transform="translate(242.513596, 45.448654)"><g><path d="M 1.8125 0 L 6.757812 0 L 6.757812 -17.140625 L 1.8125 -17.140625 Z M 1.8125 0 "/></g></g></g><g fill="#473c33" fill-opacity="1"><g transform="translate(251.080363, 45.448654)"><g><path d="M 1.8125 0 L 6.707031 0 L 6.707031 -8.742188 L 13.222656 0 L 17.238281 0 L 17.238281 -17.140625 L 12.363281 -17.140625 L 12.363281 -8.445312 L 5.851562 -17.140625 L 1.8125 -17.140625 Z M 1.8125 0 "/></g></g></g><g fill="#473c33" fill-opacity="1"><g transform="translate(270.147544, 45.448654)"><g><path d="M 9.988281 0.367188 C 15.890625 0.367188 19.585938 -3.917969 19.050781 -9.941406 L 9.132812 -9.941406 L 9.132812 -6.464844 L 13.859375 -6.464844 C 13.367188 -5.019531 11.996094 -4.039062 10.039062 -4.039062 C 7.296875 -4.039062 5.703125 -5.972656 5.703125 -8.570312 C 5.703125 -11.261719 7.441406 -13.097656 9.988281 -13.097656 C 11.507812 -13.097656 12.804688 -12.4375 13.464844 -11.359375 L 18.730469 -11.359375 C 17.726562 -15.105469 14.25 -17.507812 9.917969 -17.507812 C 4.53125 -17.507812 0.832031 -13.832031 0.832031 -8.570312 C 0.832031 -3.28125 4.554688 0.367188 9.988281 0.367188 Z M 9.988281 0.367188 "/></g></g></g></svg>