<svg xmlns="http://www.w3.org/2000/svg" xmlns:xlink="http://www.w3.org/1999/xlink" width="500" zoomAndPan="magnify" viewBox="0 0 375 374.999991" height="500" preserveAspectRatio="xMidYMid meet" version="1.0"><defs><g/><clipPath id="4f6ddf0b04"><path d="M 16.238281 183.089844 L 358.761719 183.089844 L 358.761719 203.535156 L 16.238281 203.535156 Z M 16.238281 183.089844 " clip-rule="nonzero"/></clipPath></defs><g fill="#227c70" fill-opacity="1"><g transform="translate(23.806011, 235.903139)"><g><path d="M 74.898438 -43.238281 C 61.859375 -18.757812 54.675781 -2.394531 41.773438 -2.394531 L 37.382812 -2.394531 L 37.382812 -81.550781 L 44.300781 -89 L 44.300781 -89.796875 L 4.523438 -89.796875 L 4.523438 -89 L 11.441406 -81.550781 L 11.574219 -7.714844 L 4.390625 -0.796875 L 4.390625 0 L 75.695312 0 L 75.695312 -43.238281 Z M 74.898438 -43.238281 "/></g></g></g><g fill="#227c70" fill-opacity="1"><g transform="translate(99.766749, 235.903139)"><g><path d="M 44.964844 -89 C 63.058594 -76.496094 61.996094 -50.289062 57.070312 -39.511719 L 54.277344 -31.527344 L 53.746094 -31.527344 L 32.59375 -82.082031 L 39.246094 -89 L 39.246094 -89.796875 L 0.929688 -89.796875 L 0.929688 -89 L 41.242188 1.996094 L 42.703125 1.996094 L 81.816406 -89 L 81.816406 -89.796875 L 44.964844 -89.796875 Z M 44.964844 -89 "/></g></g></g><g fill="#227c70" fill-opacity="1"><g transform="translate(178.92024, 235.903139)"><g><path d="M 37.515625 -89.796875 L 4.257812 -89.796875 L 4.257812 -89 L 11.441406 -82.082031 L 11.441406 -7.714844 L 4.257812 -0.796875 L 4.257812 0 L 37.78125 0 C 75.828125 0 86.738281 -25.808594 86.738281 -47.09375 C 86.738281 -75.695312 70.109375 -89.796875 37.515625 -89.796875 Z M 37.382812 -2.660156 L 37.382812 -87.402344 L 38.046875 -87.402344 C 54.945312 -87.402344 59.332031 -74.765625 59.332031 -44.964844 C 59.332031 -13.570312 54.675781 -2.660156 39.910156 -2.660156 Z M 37.382812 -2.660156 "/></g></g></g><g fill="#227c70" fill-opacity="1"><g transform="translate(264.991374, 235.903139)"><g><path d="M 77.558594 -37.78125 C 74.632812 -33.390625 72.238281 -29.535156 70.109375 -26.207031 C 58.136719 -6.917969 55.078125 -2.394531 39.511719 -2.394531 L 37.382812 -2.394531 L 37.382812 -44.167969 L 38.714844 -44.167969 C 45.898438 -44.167969 51.21875 -40.976562 59.601562 -25.808594 L 60.398438 -25.808594 L 60.398438 -64.789062 L 59.601562 -64.789062 C 51.085938 -48.558594 45.898438 -46.429688 38.714844 -46.429688 L 37.382812 -46.429688 L 37.382812 -87.402344 L 38.714844 -87.402344 C 54.277344 -87.402344 57.339844 -82.878906 69.3125 -63.589844 L 76.761719 -52.015625 L 77.558594 -52.015625 L 77.558594 -89.796875 L 4.257812 -89.796875 L 4.257812 -89 L 11.441406 -82.082031 L 11.441406 -7.714844 L 4.257812 -0.796875 L 4.257812 0 L 78.359375 0 L 78.359375 -37.78125 Z M 77.558594 -37.78125 "/></g></g></g><g clip-path="url(#4f6ddf0b04)"><path fill="#fbfaf9" d="M 16.238281 183.089844 L 358.238281 183.089844 L 358.238281 203.714844 L 16.238281 203.714844 Z M 16.238281 183.089844 " fill-opacity="1" fill-rule="nonzero"/></g><g fill="#1c315e" fill-opacity="1"><g transform="translate(129.282993, 196.191434)"><g><path d="M 0.527344 0 L 6.804688 0 L 6.804688 -1.164062 L 2 -1.164062 L 2 -7.503906 L 0.527344 -7.503906 Z M 0.527344 0 "/></g></g></g><g fill="#1c315e" fill-opacity="1"><g transform="translate(144.64035, 196.191434)"><g><path d="M 4.75 0.242188 C 7.386719 0.242188 9.089844 -1.070312 9.089844 -3.417969 L 9.089844 -7.503906 L 7.621094 -7.503906 L 7.621094 -3.460938 C 7.621094 -1.777344 6.488281 -0.929688 4.761719 -0.929688 C 3.046875 -0.929688 1.90625 -1.777344 1.90625 -3.460938 L 1.90625 -7.503906 L 0.421875 -7.503906 L 0.421875 -3.417969 C 0.421875 -1.070312 2.128906 0.242188 4.75 0.242188 Z M 4.75 0.242188 "/></g></g></g><g fill="#1c315e" fill-opacity="1"><g transform="translate(162.622054, 196.191434)"><g><path d="M 0.0429688 0 L 1.734375 0 L 4.636719 -3.132812 L 7.578125 0 L 9.292969 0 L 5.554688 -3.90625 L 9.207031 -7.503906 L 7.503906 -7.503906 L 4.625 -4.644531 L 1.820312 -7.503906 L 0.128906 -7.503906 L 3.703125 -3.894531 Z M 0.0429688 0 "/></g></g></g><g fill="#1c315e" fill-opacity="1"><g transform="translate(180.423866, 196.191434)"><g><path d="M 4.75 0.242188 C 7.386719 0.242188 9.089844 -1.070312 9.089844 -3.417969 L 9.089844 -7.503906 L 7.621094 -7.503906 L 7.621094 -3.460938 C 7.621094 -1.777344 6.488281 -0.929688 4.761719 -0.929688 C 3.046875 -0.929688 1.90625 -1.777344 1.90625 -3.460938 L 1.90625 -7.503906 L 0.421875 -7.503906 L 0.421875 -3.417969 C 0.421875 -1.070312 2.128906 0.242188 4.75 0.242188 Z M 4.75 0.242188 "/></g></g></g><g fill="#1c315e" fill-opacity="1"><g transform="translate(198.405572, 196.191434)"><g><path d="M 0.527344 0 L 1.945312 0 L 1.945312 -5.96875 L 1.96875 -5.96875 L 5.226562 0 L 6.699219 0 L 9.9375 -5.96875 L 9.957031 -5.96875 L 9.957031 0 L 11.375 0 L 11.375 -7.503906 L 9.3125 -7.503906 L 5.957031 -1.324219 L 5.949219 -1.324219 L 2.570312 -7.503906 L 0.527344 -7.503906 Z M 0.527344 0 "/></g></g></g><g fill="#1c315e" fill-opacity="1"><g transform="translate(218.778818, 196.191434)"><g><path d="M 4.75 0.242188 C 7.386719 0.242188 9.089844 -1.070312 9.089844 -3.417969 L 9.089844 -7.503906 L 7.621094 -7.503906 L 7.621094 -3.460938 C 7.621094 -1.777344 6.488281 -0.929688 4.761719 -0.929688 C 3.046875 -0.929688 1.90625 -1.777344 1.90625 -3.460938 L 1.90625 -7.503906 L 0.421875 -7.503906 L 0.421875 -3.417969 C 0.421875 -1.070312 2.128906 0.242188 4.75 0.242188 Z M 4.75 0.242188 "/></g></g></g><g fill="#1c315e" fill-opacity="1"><g transform="translate(236.760518, 196.191434)"><g><path d="M 4.835938 0.253906 C 7.175781 0.253906 8.742188 -0.71875 8.742188 -2.160156 C 8.742188 -3.367188 7.777344 -4.011719 5.546875 -4.316406 L 3.789062 -4.5625 C 2.613281 -4.71875 2.117188 -5.015625 2.117188 -5.523438 C 2.117188 -6.210938 3.046875 -6.6875 4.347656 -6.6875 C 5.652344 -6.6875 6.847656 -6.160156 7.429688 -5.40625 L 8.117188 -6.265625 C 7.449219 -7.144531 6 -7.757812 4.339844 -7.757812 C 2.191406 -7.757812 0.667969 -6.878906 0.667969 -5.429688 C 0.667969 -4.265625 1.503906 -3.671875 3.460938 -3.417969 L 5.238281 -3.144531 C 6.675781 -2.941406 7.292969 -2.59375 7.292969 -2.03125 C 7.292969 -1.34375 6.339844 -0.835938 4.910156 -0.835938 C 3.164062 -0.835938 1.554688 -1.578125 1.003906 -2.644531 L 0.210938 -1.800781 C 0.921875 -0.59375 2.75 0.253906 4.835938 0.253906 Z M 4.835938 0.253906 "/></g></g></g></svg>